<?xml version="1.0" ?><svg viewBox="0 0 64 64" xmlns="http://www.w3.org/2000/svg"><defs><style>.cls-1{fill:#f23d6c;}.cls-2{fill:#fcc667;}.cls-3{fill:#ae66d3;}.cls-4{fill:#16244d;}</style></defs><g id="Galaxy"><path class="cls-1" d="M18.54,27.1A4.16,4.16,0,1,1,14.39,23,4.15,4.15,0,0,1,18.54,27.1Z" id="path1517-6"/><path class="cls-2" d="M52.53,17.92a4.16,4.16,0,1,1-4.15-4.16A4.15,4.15,0,0,1,52.53,17.92Z" id="path1517-1-3"/><path class="cls-3" d="M44.82,44.87a4.16,4.16,0,1,1-4.15-4.16A4.15,4.15,0,0,1,44.82,44.87Z" id="path1517-4-9"/><path class="cls-4" d="M9.9,21.71a9.31,9.31,0,0,0-6.58,11.4,1,1,0,0,0,1,.74,1.09,1.09,0,0,0,.26,0,1,1,0,0,0,.71-1.23,7.31,7.31,0,0,1,5.17-9l.2,0a9.3,9.3,0,0,0,6.7,15.75,1,1,0,0,0,0-2A7.31,7.31,0,0,1,10,30a1.48,1.48,0,0,1,0-.21,1.67,1.67,0,0,0,.15.23A9.29,9.29,0,0,0,27,27.44a1,1,0,0,0-.7-1.23,1,1,0,0,0-1.23.71,7.29,7.29,0,0,1-8.92,5.17A9.31,9.31,0,0,0,21,16.37a1,1,0,0,0-1.42,0,1,1,0,0,0,0,1.41,7.31,7.31,0,0,1-.14,10.47A9.31,9.31,0,0,0,5.72,18a1,1,0,1,0,1,1.73,7.3,7.3,0,0,1,10,2.68.91.91,0,0,1,.09.17A9.24,9.24,0,0,0,9.9,21.71Zm1.33,5.39a3.16,3.16,0,1,1,3.16,3.16A3.16,3.16,0,0,1,11.23,27.1Z"/><path class="cls-4" d="M57.69,13.76A9.25,9.25,0,0,0,55,7.18,1,1,0,1,0,53.55,8.6a7.28,7.28,0,0,1-.15,10.46,1.39,1.39,0,0,0,0-.17A9.3,9.3,0,0,0,39.71,8.78a1,1,0,0,0,1,1.73,7.29,7.29,0,0,1,10.07,2.85A9.3,9.3,0,0,0,37.31,23.92a1,1,0,0,0,1,.75,1.09,1.09,0,0,0,.25,0,1,1,0,0,0,.71-1.22A7.32,7.32,0,0,1,40,17.86a7.24,7.24,0,0,1,4.44-3.4l.2-.05a9.3,9.3,0,0,0,6.7,15.75,1,1,0,0,0,0-2A7.31,7.31,0,0,1,44,20.85a1.41,1.41,0,0,1,0-.2l.15.23A9.32,9.32,0,0,0,52,25.15a9.32,9.32,0,0,0,9-6.9A1,1,0,1,0,59,17.73a7.29,7.29,0,0,1-8.92,5.17A9.32,9.32,0,0,0,57.69,13.76Zm-9.31,7.31a3.16,3.16,0,1,1,3.15-3.15,3.16,3.16,0,0,1-3.15,3.15Z"/><path class="cls-4" d="M39.06,34.8a9.27,9.27,0,0,0-7.06.93,1,1,0,1,0,1,1.73,7.3,7.3,0,0,1,10,2.68,1.51,1.51,0,0,1,.09.18A9.3,9.3,0,0,0,29.6,50.87a1,1,0,0,0,1,.74,1.09,1.09,0,0,0,.26,0,1,1,0,0,0,.71-1.23,7.28,7.28,0,0,1,5.36-9A9.3,9.3,0,0,0,43.6,57.11a1,1,0,1,0,0-2,7.29,7.29,0,0,1-7.29-7.5,9.31,9.31,0,0,0,5.54,4.17,9.66,9.66,0,0,0,2.43.32,9.3,9.3,0,0,0,9-6.9,1,1,0,0,0-.7-1.23,1,1,0,0,0-1.23.71,7.29,7.29,0,0,1-8.93,5.17,9.31,9.31,0,0,0,4.86-15.72,1,1,0,0,0-1.42,0,1,1,0,0,0,0,1.41A7.31,7.31,0,0,1,45.69,46,9.33,9.33,0,0,0,39.06,34.8ZM37.51,44.87A3.16,3.16,0,1,1,40.67,48,3.17,3.17,0,0,1,37.51,44.87Z"/><path class="cls-4" d="M25.21,38.44a1,1,0,0,0-1,1v.23H24a1,1,0,1,0,0,2h.22v.22a1,1,0,0,0,2,0v-.22h.23a1,1,0,0,0,0-2h-.23v-.23A1,1,0,0,0,25.21,38.44Z"/><path class="cls-4" d="M34.78,25.7a1,1,0,0,0-1,1v.22h-.22a1,1,0,0,0,0,2h.22v.23a1,1,0,0,0,2,0v-.23H36a1,1,0,0,0,0-2h-.23V26.7A1,1,0,0,0,34.78,25.7Z"/><path class="cls-4" d="M27.47,16.1a1,1,0,0,0-1,1v.23h-.23a1,1,0,1,0,0,2h.23v.22a1,1,0,0,0,2,0v-.22h.23a1,1,0,1,0,0-2h-.23V17.1A1,1,0,0,0,27.47,16.1Z"/><path class="cls-4" d="M55.72,29.88a1,1,0,0,0-1,1v.22h-.23a1,1,0,0,0,0,2h.23v.23a1,1,0,0,0,2,0V33.1H57a1,1,0,0,0,0-2h-.23v-.22A1,1,0,0,0,55.72,29.88Z"/><path class="cls-4" d="M16.06,42.88a1,1,0,0,0-1,1v.23h-.22a1,1,0,0,0,0,2h.22v.23a1,1,0,0,0,2,0v-.23h.23a1,1,0,0,0,0-2h-.23v-.23A1,1,0,0,0,16.06,42.88Z"/><path class="cls-4" d="M31.9,7.45a1,1,0,0,0-1,1v.23h-.22a1,1,0,0,0,0,2h.22v.22a1,1,0,0,0,2,0v-.22h.23a1,1,0,0,0,0-2H32.9V8.45A1,1,0,0,0,31.9,7.45Z"/></g></svg>