<svg xmlns:cc="http://creativecommons.org/ns#" xmlns:inkscape="http://www.inkscape.org/namespaces/inkscape" xmlns:svg="http://www.w3.org/2000/svg" xmlns:sodipodi="http://sodipodi.sourceforge.net/DTD/sodipodi-0.dtd" xmlns:dc="http://purl.org/dc/elements/1.1/" xmlns:rdf="http://www.w3.org/1999/02/22-rdf-syntax-ns#" xmlns="http://www.w3.org/2000/svg" xmlns:xlink="http://www.w3.org/1999/xlink" version="1.1" x="0px" y="0px" viewBox="0 0 800 800" xml:space="preserve"><g><path d="M774.665,181.546L711.336,47.239c-4.71-9.989-16.628-14.271-26.619-9.56l-316.45,149.214l80.378,170.491l316.461-149.219   c4.797-2.263,8.5-6.338,10.293-11.33S776.928,186.345,774.665,181.546z"/><path d="M171.854,320.106L34.898,384.688c-9.99,4.712-14.271,16.629-9.56,26.62l32.005,67.873   c3.412,7.234,10.602,11.475,18.104,11.475c2.857,0,5.761-0.615,8.516-1.915l136.957-64.578L171.854,320.106z"/><path d="M340.947,222.597l-139.771,65.906l62.782,133.146l139.771-65.907l0.273,0.581c0.005,0.01,0.01,0.019,0.015,0.028   L340.947,222.597z"/><path d="M576.271,735.54L428.044,428.309h51.088c11.046,0,20-8.954,20-20V393.5v-26.45L371.96,428.309L223.73,735.54   c-4.799,9.948-0.625,21.903,9.322,26.703c2.803,1.353,5.762,1.992,8.678,1.992c7.436,0,14.578-4.167,18.027-11.314l120.244-249.229   V744.23c0,11.046,8.954,20,20,20s20-8.954,20-20V503.692l120.244,249.229c3.448,7.147,10.59,11.314,18.027,11.314   c2.914,0,5.875-0.641,8.676-1.992C576.897,757.444,581.071,745.488,576.271,735.54z"/></g></svg>